<svg width="64" height="64" version="1.1" xmlns="http://www.w3.org/2000/svg" desc="Created with imagetracer.js version 1.2.6" ><path fill="rgb(0,0,0)" stroke="rgb(0,0,0)" stroke-width="1" opacity="0" d="M 0 0 L 64 0 L 64 60.5 L 62.5 60 L 60 61.5 L 61 63.5 L 47.5 64 L 47.5 63 L 52.5 59 L 57 59 L 55.5 55 L 51.5 55 L 44.5 60 L 36.5 52 L 33.5 52 L 31 53 L 25.5 60 Q 21 59 20 61.5 L 19.5 64 L 0 64 L 0 0 Z M 48 2 L 46 3 L 42 9 L 40 8 L 31 9 L 23 16 L 19 14 L 17 18 L 22 20 L 25 20 L 35 12 L 36 13 L 13 36 L 8 45 L 7 53 Q 4 54 5 57 L 22 53 L 29 48 L 56 21 L 61 13 L 60 7 Q 58 0 48 2 Z " /><path fill="rgb(0,0,0)" stroke="rgb(0,0,0)" stroke-width="1" opacity="0" d="M 34.5 56 L 41.5 64 L 28 63.5 L 34.5 56 Z " /><path fill="rgb(68,74,84)" stroke="rgb(68,74,84)" stroke-width="1" opacity="0.28627450980392155" d="M 56.5 3 L 58.5 6 L 56.5 3 Z " /><path fill="rgb(68,74,84)" stroke="rgb(68,74,84)" stroke-width="1" opacity="0.28627450980392155" d="M 34.5 8 L 40 8.5 L 34.5 9 L 34.5 8 Z " /><path fill="rgb(68,74,84)" stroke="rgb(68,74,84)" stroke-width="1" opacity="0.28627450980392155" d="M 60.5 10 L 61 12.5 L 60 12.5 L 60.5 10 Z " /><path fill="rgb(68,74,84)" stroke="rgb(68,74,84)" stroke-width="1" opacity="0.28627450980392155" d="M 26.5 12 L 23.5 16 L 26.5 12 Z " /><path fill="rgb(68,74,84)" stroke="rgb(68,74,84)" stroke-width="1" opacity="0.28627450980392155" d="M 30.5 13 L 24.5 20 L 22 19.5 L 24.5 19 L 30.5 13 Z " /><path fill="rgb(68,74,84)" stroke="rgb(68,74,84)" stroke-width="1" opacity="0.28627450980392155" d="M 17.5 15 L 18 17.5 L 17 17.5 L 17.5 15 Z " /><path fill="rgb(68,74,84)" stroke="rgb(68,74,84)" stroke-width="1" opacity="0.28627450980392155" d="M 58.5 16 L 47.5 28 L 58.5 16 Z " /><path fill="rgb(68,74,84)" stroke="rgb(68,74,84)" stroke-width="1" opacity="0.28627450980392155" d="M 40.5 34 L 38.5 37 L 40.5 34 Z " /><path fill="rgb(68,74,84)" stroke="rgb(68,74,84)" stroke-width="1" opacity="0.28627450980392155" d="M 13.5 36 L 12.5 38 L 13.5 36 Z " /><path fill="rgb(68,74,84)" stroke="rgb(68,74,84)" stroke-width="1" opacity="0.28627450980392155" d="M 11.5 39 L 10.5 41 L 11.5 39 Z " /><path fill="rgb(68,74,84)" stroke="rgb(68,74,84)" stroke-width="1" opacity="0.28627450980392155" d="M 27.5 47 L 24.5 51 L 27.5 47 Z " /><path fill="rgb(68,74,84)" stroke="rgb(68,74,84)" stroke-width="1" opacity="0.28627450980392155" d="M 7.5 50 L 8 52.5 L 6 53.5 L 7.5 50 Z " /><path fill="rgb(68,74,84)" stroke="rgb(68,74,84)" stroke-width="1" opacity="0.28627450980392155" d="M 33.5 52 L 36 52.5 Q 30.9 52.9 29.5 57 L 33.5 52 Z " /><path fill="rgb(68,74,84)" stroke="rgb(68,74,84)" stroke-width="1" opacity="0.28627450980392155" d="M 37.5 53 L 41.5 58 L 37.5 53 Z " /><path fill="rgb(68,74,84)" stroke="rgb(68,74,84)" stroke-width="1" opacity="0.28627450980392155" d="M 12.5 54 L 15 54.5 L 12.5 55 L 12.5 54 Z " /><path fill="rgb(68,74,84)" stroke="rgb(68,74,84)" stroke-width="1" opacity="0.28627450980392155" d="M 5.5 55 L 6.5 57 L 5.5 55 Z " /><path fill="rgb(68,74,84)" stroke="rgb(68,74,84)" stroke-width="1" opacity="0.28627450980392155" d="M 9.5 55 L 8.5 57 L 9.5 55 Z " /><path fill="rgb(68,74,84)" stroke="rgb(68,74,84)" stroke-width="1" opacity="0.28627450980392155" d="M 34.5 55 L 33.5 57 L 34.5 55 Z " /><path fill="rgb(68,74,84)" stroke="rgb(68,74,84)" stroke-width="1" opacity="0.28627450980392155" d="M 51.5 55 L 55 55.5 L 51.5 56 L 51.5 55 Z " /><path fill="rgb(68,74,84)" stroke="rgb(68,74,84)" stroke-width="1" opacity="0.28627450980392155" d="M 56.5 56 L 57 58.5 L 56 58.5 L 56.5 56 Z " /><path fill="rgb(68,74,84)" stroke="rgb(68,74,84)" stroke-width="1" opacity="0.28627450980392155" d="M 48.5 57 L 46.5 60 L 48.5 57 Z " /><path fill="rgb(68,74,84)" stroke="rgb(68,74,84)" stroke-width="1" opacity="0.28627450980392155" d="M 37.5 58 L 41.5 63 L 37.5 58 Z " /><path fill="rgb(68,74,84)" stroke="rgb(68,74,84)" stroke-width="1" opacity="0.28627450980392155" d="M 31.5 59 L 28.5 63 L 31.5 59 Z " /><path fill="rgb(68,74,84)" stroke="rgb(68,74,84)" stroke-width="1" opacity="0.28627450980392155" d="M 51.5 59 L 49.5 62 L 51.5 59 Z " /><path fill="rgb(68,74,84)" stroke="rgb(68,74,84)" stroke-width="1" opacity="0.28627450980392155" d="M 21.5 60 L 26 60.5 L 21 61 L 22 63.5 L 20 62.5 L 21.5 60 Z " /><path fill="rgb(68,74,84)" stroke="rgb(68,74,84)" stroke-width="1" opacity="0.28627450980392155" d="M 62.5 60 L 63.5 62 L 62.5 60 Z " /><path fill="rgb(68,74,84)" stroke="rgb(68,74,84)" stroke-width="1" opacity="0.28627450980392155" d="M 47.5 62 L 46.5 64 L 43 63.5 L 47.5 62 Z " /><path fill="rgb(68,74,84)" stroke="rgb(68,74,84)" stroke-width="1" opacity="0.28627450980392155" d="M 60.5 62 L 64 63.5 L 61.5 64 L 60.5 62 Z " /><path fill="rgb(77,83,85)" stroke="rgb(77,83,85)" stroke-width="1" opacity="0.9529411764705882" d="M 49.5 2 Q 56.8 1.8 59 6.5 L 60 13.5 L 41.5 34 L 38 36.5 L 28.5 47 L 19.5 53 L 12.5 54 L 7.5 57 L 6 54.5 L 8 52.5 L 8 47.5 L 10 41.5 L 14 35.5 L 37 11.5 L 35.5 12 L 32.5 12 L 24.5 19 L 21.5 19 L 18 18 Q 16.5 14.3 19.5 15 L 23.5 16 L 32.5 9 L 41.5 9 Q 48.3 11.3 52 16.5 L 52.5 18 Q 57.9 16.4 57 8.5 Q 55.7 4.3 49.5 5 L 45 7 Q 43.5 3.3 46.5 4 L 49.5 2 Z M 42 12 L 16 38 L 11 47 L 11 52 L 22 49 L 31 41 L 33 38 L 38 34 L 41 30 L 50 22 L 48 17 L 42 12 Z " /><path fill="rgb(77,83,85)" stroke="rgb(77,83,85)" stroke-width="1" opacity="0.9529411764705882" d="M 33.5 53 L 36.5 53 L 44.5 61 L 50.5 56 L 56 56 Q 57.5 59.8 54.5 59 L 52.5 59 L 46.5 63 L 42.5 63 L 34.5 55 L 33 56.5 L 27.5 63 L 22.5 64 L 21 61 L 28 60 L 33.5 53 Z " /><path fill="rgb(77,83,85)" stroke="rgb(77,83,85)" stroke-width="1" opacity="0.9529411764705882" d="M 61 61 L 64 62.5 L 61 63 L 61 61 Z " /><path fill="rgb(82,83,91)" stroke="rgb(82,83,91)" stroke-width="1" opacity="0.023529411764705882" d="M 45.5 3 L 44.5 5 L 45.5 3 Z " /><path fill="rgb(82,83,91)" stroke="rgb(82,83,91)" stroke-width="1" opacity="0.023529411764705882" d="M 36.5 12 L 13.5 36 L 36.5 12 Z " /><path fill="rgb(82,83,91)" stroke="rgb(82,83,91)" stroke-width="1" opacity="0.023529411764705882" d="M 55.5 20 L 28.5 48 L 55.5 20 Z " /><path fill="rgb(82,83,91)" stroke="rgb(82,83,91)" stroke-width="1" opacity="0.023529411764705882" d="M 35.5 56 L 36.5 58 L 35.5 56 Z " /><path fill="rgb(82,83,91)" stroke="rgb(82,83,91)" stroke-width="1" opacity="0.023529411764705882" d="M 28.5 57 L 26.5 60 L 28.5 57 Z " /><path fill="rgb(82,83,91)" stroke="rgb(82,83,91)" stroke-width="1" opacity="0.023529411764705882" d="M 33.5 57 L 32.5 59 L 33.5 57 Z " /><path fill="rgb(82,83,91)" stroke="rgb(82,83,91)" stroke-width="1" opacity="0.023529411764705882" d="M 42.5 58 L 43.5 60 L 42.5 58 Z " /><path fill="rgb(82,83,91)" stroke="rgb(82,83,91)" stroke-width="1" opacity="0.023529411764705882" d="M 61.5 60 L 60.5 62 L 61.5 60 Z " /><path fill="rgb(204,200,175)" stroke="rgb(204,200,175)" stroke-width="1" opacity="0.9882352941176471" d="M 49.5 5 Q 55.7 4.3 57 8.5 Q 57.9 16.4 52.5 18 L 47.5 12 L 42 9.5 L 49.5 5 Z " /><path fill="rgb(204,200,175)" stroke="rgb(204,200,175)" stroke-width="1" opacity="0.9882352941176471" d="M 41.5 12 L 16.5 38 L 41.5 12 Z " /><path fill="rgb(204,200,175)" stroke="rgb(204,200,175)" stroke-width="1" opacity="0.9882352941176471" d="M 46.5 15 L 47.5 17 L 46.5 15 Z " /><path fill="rgb(204,200,175)" stroke="rgb(204,200,175)" stroke-width="1" opacity="0.9882352941176471" d="M 49.5 19 L 50 21.5 L 41 29.5 L 37.5 34 L 33 37.5 L 31 40.5 L 25.5 46 L 24 44.5 L 24 42.5 L 40.5 26 L 43.5 27 L 49 21.5 L 49.5 19 Z " /><path fill="rgb(204,200,175)" stroke="rgb(204,200,175)" stroke-width="1" opacity="0.9882352941176471" d="M 22.5 47 L 21.5 49 L 22.5 47 Z " /><path fill="rgb(204,200,175)" stroke="rgb(204,200,175)" stroke-width="1" opacity="0.9882352941176471" d="M 11.5 51 L 14 51.5 L 11.5 52 L 11.5 51 Z " /><path fill="rgb(254,254,254)" stroke="rgb(254,254,254)" stroke-width="1" opacity="1" d="M 43.5 7 L 42.5 9 L 43.5 7 Z " /><path fill="rgb(254,254,254)" stroke="rgb(254,254,254)" stroke-width="1" opacity="1" d="M 41.5 13 L 49 18.5 L 49 21.5 L 43.5 27 L 40.5 26 L 24 42.5 L 24 44.5 Q 26.2 45.8 23.5 47 Q 19.2 51.8 11 51 L 15 39.5 L 41.5 13 Z " /></svg>